mtllib spawn_crystal.mtl
o spawn_crystal
v 0.127885 1.482571 0.855132
v 0.498513 1.987008 0.484505
v 0.127885 1.482571 0.113877
v 0.869140 1.482571 0.113877
v 0.869140 1.482571 0.855132
v 0.498513 0.017859 0.484504
v 0.869140 0.522295 0.855131
v 0.127885 0.522295 0.855131
v 0.869140 0.522295 0.113877
v 0.127885 0.522295 0.113877
vn -0.8059 0.5921 0.0000
vn 0.0000 0.5921 -0.8059
vn 0.8059 0.5921 0.0000
vn 0.0000 0.5921 0.8059
vn 0.0000 -0.5921 0.8059
vn 0.0000 -0.0000 1.0000
vn 0.8059 -0.5921 -0.0000
vn 1.0000 -0.0000 0.0000
vn 0.0000 -0.5921 -0.8059
vn 0.0000 0.0000 -1.0000
vn -0.8059 -0.5921 -0.0000
vn -1.0000 0.0000 0.0000
usemtl None
s 1
f 1//1 2//1 3//1
f 3//2 2//2 4//2
f 4//3 2//3 5//3
f 5//4 2//4 1//4
f 6//5 7//5 8//5
f 7//6 5//6 1//6 8//6
f 6//7 9//7 7//7
f 9//8 4//8 5//8 7//8
f 6//9 10//9 9//9
f 10//10 3//10 4//10 9//10
f 6//11 8//11 10//11
f 8//12 1//12 3//12 10//12