mtllib mini_hakkero.mtl
o 001
v 0.236783 0.401704 0.399792
v 0.390972 0.247517 0.398969
v 0.236783 0.400649 0.597202
v 0.390972 0.246462 0.596378
v 0.236783 0.400649 0.597202
v 0.236783 0.619756 0.400957
v 0.236783 0.618702 0.598366
v 0.236783 0.619756 0.400957
v 0.236783 0.618702 0.598366
v 0.390972 0.773943 0.401780
v 0.390972 0.772889 0.599190
v 0.609028 0.773943 0.401780
v 0.390972 0.773943 0.401780
v 0.609028 0.772889 0.599190
v 0.390972 0.772889 0.599190
v 0.763217 0.619756 0.400957
v 0.609028 0.773943 0.401780
v 0.763217 0.618702 0.598366
v 0.609028 0.772889 0.599190
v 0.763217 0.619756 0.400957
v 0.763217 0.618702 0.598366
v 0.763217 0.401704 0.399792
v 0.763217 0.400649 0.597202
v 0.763217 0.401704 0.399792
v 0.763217 0.400649 0.597202
v 0.609028 0.247517 0.398969
v 0.609028 0.246462 0.596378
v 0.390972 0.247517 0.398969
v 0.609028 0.247517 0.398969
v 0.390972 0.246462 0.596378
v 0.609028 0.246462 0.596378
v 0.763217 0.400649 0.597202
v 0.390972 0.246462 0.596378
v 0.609028 0.246462 0.596378
v 0.390972 0.246462 0.596378
v 0.763217 0.400649 0.597202
v 0.236783 0.400649 0.597202
v 0.763217 0.618702 0.598366
v 0.236783 0.618702 0.598366
v 0.609028 0.772889 0.599190
v 0.390972 0.772889 0.599190
v 0.609028 0.247517 0.398969
v 0.390972 0.247517 0.398969
v 0.763217 0.401704 0.399792
v 0.236783 0.401704 0.399792
v 0.763217 0.619756 0.400957
v 0.236783 0.619756 0.400957
v 0.609028 0.773943 0.401780
v 0.390972 0.773943 0.401780
vt 0.839634 0.187500
vt 1.000000 0.187501
vt 0.839634 0.375000
vt 1.000000 0.375000
vt 0.752845 0.207106
vt 0.547523 0.207107
vt 0.752845 0.000000
vt 0.547523 0.000000
vt 0.752845 0.570184
vt 0.752845 0.382684
vt 0.913211 0.570184
vt 0.913211 0.382684
vt 0.547523 0.621321
vt 0.547523 0.414214
vt 0.752845 0.621321
vt 0.752845 0.414214
vt 0.752845 0.621321
vt 0.913210 0.621321
vt 0.752845 0.808821
vt 0.913210 0.808821
vt 0.752845 0.414214
vt 0.547523 0.414214
vt 0.752845 0.207108
vt 0.547523 0.207107
vt 0.839634 0.187500
vt 0.839634 0.000000
vt 1.000000 0.187499
vt 1.000000 0.000000
vt 0.752844 0.621321
vt 0.752844 0.828428
vt 0.547523 0.621321
vt 0.547523 0.828428
vt 0.839634 0.000000
vt 0.839634 0.382684
vt 0.752845 0.191342
vt 0.000000 0.353554
vt 0.160366 0.000000
vt 0.160366 0.500000
vt 0.387157 0.000000
vt 0.387158 0.500000
vt 0.547523 0.146447
vt 0.547523 0.353554
vt 0.160366 1.000000
vt 0.000000 0.853553
vt 0.387157 1.000000
vt 0.000000 0.646446
vt 0.547523 0.853554
vt 0.160365 0.500000
vt 0.547523 0.646447
vt 0.387157 0.500000
vn -1.0000 0.0000 0.0002
vn -0.7071 -0.7071 -0.0038
vn -1.0000 -0.0000 0.0000
vn -0.7071 0.7071 0.0038
vn 0.0000 1.0000 0.0053
vn 0.7071 0.7071 0.0038
vn 1.0000 0.0000 0.0000
vn 0.7071 -0.7071 -0.0038
vn 0.0000 -1.0000 -0.0053
vn 0.0000 -0.0053 1.0000
vn 0.0000 0.0053 -1.0000
usemtl None
f 1/1/1 2/2/2 3/3/2
f 2/2/2 4/4/2 3/3/2
f 1/5/3 5/6/3 6/7/3
f 5/6/3 7/8/3 6/7/3
f 8/9/4 9/10/4 10/11/4
f 9/10/4 11/12/4 10/11/4
f 12/13/5 13/14/5 14/15/5
f 13/14/5 15/16/5 14/15/5
f 16/17/6 17/18/6 18/19/6
f 17/18/6 19/20/6 18/19/6
f 20/21/7 21/22/7 22/23/7
f 21/22/7 23/24/7 22/23/7
f 24/25/8 25/26/8 26/27/8
f 25/26/8 27/28/8 26/27/8
f 28/29/9 29/30/9 30/31/9
f 29/30/9 31/32/9 30/31/9
f 32/33/10 33/34/10 34/35/10
f 35/36/10 36/37/10 37/38/10
f 36/37/10 38/39/10 37/38/10
f 37/38/10 38/39/10 39/40/10
f 38/39/10 40/41/10 39/40/10
f 39/40/10 40/41/10 41/42/10
f 42/43/11 43/44/11 44/45/11
f 43/44/11 45/46/11 44/45/11
f 44/45/11 45/46/11 46/47/11
f 45/46/11 47/48/11 46/47/11
f 46/47/11 47/48/11 48/49/11
f 47/48/11 49/50/11 48/49/11